<svg width="16" height="16" viewBox="0 0 16 16" fill="none" xmlns="http://www.w3.org/2000/svg">
<circle cx="8" cy="8" r="8" fill="white"/>
<path fill-rule="evenodd" clip-rule="evenodd" d="M8.36939 2.93726C7.05286 2.93267 5.97608 3.99618 5.96434 5.31267L5.95378 6.49736L4.36535 4.53794C4.02522 4.11837 3.40465 4.04806 2.97927 4.38088L2.70638 4.5944C2.28099 4.92722 2.21188 5.53716 2.55201 5.95673L5.92153 10.1132L5.88959 13.6933L8.27338 13.7016L8.30316 10.363L11.6243 10.4231C12.552 10.4399 13.3222 9.70149 13.3444 8.77387C13.3667 7.84626 12.6327 7.08067 11.705 7.06389L8.33313 7.00287L8.36939 2.93726ZM11.4702 2.99975C12.3699 3.02793 13.0719 3.78001 13.038 4.67957L13.0204 5.14449L9.152 5.02334L9.23091 2.92962L11.4702 2.99975Z" fill="url(#paint0_linear_5_63)"/>
<path fill-rule="evenodd" clip-rule="evenodd" d="M8.36939 2.93726C7.05286 2.93267 5.97608 3.99618 5.96434 5.31267L5.95378 6.49736L4.36535 4.53794C4.02522 4.11837 3.40465 4.04806 2.97927 4.38088L2.70638 4.5944C2.28099 4.92722 2.21188 5.53716 2.55201 5.95673L5.92153 10.1132L5.88959 13.6933L8.27338 13.7016L8.30316 10.363L11.6243 10.4231C12.552 10.4399 13.3222 9.70149 13.3444 8.77387C13.3667 7.84626 12.6327 7.08067 11.705 7.06389L8.33313 7.00287L8.36939 2.93726ZM11.4702 2.99975C12.3699 3.02793 13.0719 3.78001 13.038 4.67957L13.0204 5.14449L9.152 5.02334L9.23091 2.92962L11.4702 2.99975Z" fill="url(#paint1_linear_5_63)"/>
<defs>
<linearGradient id="paint0_linear_5_63" x1="7.20975" y1="3.08639" x2="8.83535" y2="13.6148" gradientUnits="userSpaceOnUse">
<stop stop-color="#7336E6"/>
<stop offset="1" stop-color="#424242"/>
</linearGradient>
<linearGradient id="paint1_linear_5_63" x1="7.20975" y1="3.08639" x2="8.83535" y2="13.6148" gradientUnits="userSpaceOnUse">
<stop stop-color="#7336E6"/>
<stop offset="1" stop-color="#424242"/>
</linearGradient>
</defs>
</svg>
